<?xml version="1.0" encoding="UTF-8" standalone="no"?><svg xmlns="http://www.w3.org/2000/svg" xmlns:xlink="http://www.w3.org/1999/xlink" contentScriptType="application/ecmascript" contentStyleType="text/css" height="794px" preserveAspectRatio="none" style="width:853px;height:794px;" version="1.1" viewBox="0 0 853 794" width="853px" zoomAndPan="magnify"><defs><filter height="300%" id="f7gkilau9rvqp" width="300%" x="-1" y="-1"><feGaussianBlur result="blurOut" stdDeviation="2.0"/><feColorMatrix in="blurOut" result="blurOut2" type="matrix" values="0 0 0 0 0 0 0 0 0 0 0 0 0 0 0 0 0 0 .4 0"/><feOffset dx="4.0" dy="4.0" in="blurOut2" result="blurOut3"/><feBlend in="SourceGraphic" in2="blurOut3" mode="normal"/></filter></defs><g><!--cluster Database--><polygon fill="#FFFFFF" filter="url(#f7gkilau9rvqp)" points="623,425,702,425,709,447.2969,785,447.2969,785,782,623,782,623,425" style="stroke: #000000; stroke-width: 1.5;"/><line style="stroke: #000000; stroke-width: 1.5;" x1="623" x2="709" y1="447.2969" y2="447.2969"/><text fill="#000000" font-family="sans-serif" font-size="14" font-weight="bold" lengthAdjust="spacingAndGlyphs" textLength="73" x="627" y="439.9951">Database</text><!--cluster Fleemarket--><polygon fill="#FFFFFF" filter="url(#f7gkilau9rvqp)" points="22,24,116,24,123,46.2969,599,46.2969,599,556,22,556,22,24" style="stroke: #000000; stroke-width: 1.5;"/><line style="stroke: #000000; stroke-width: 1.5;" x1="22" x2="123" y1="46.2969" y2="46.2969"/><text fill="#000000" font-family="sans-serif" font-size="14" font-weight="bold" lengthAdjust="spacingAndGlyphs" textLength="88" x="26" y="38.9951">Fleemarket</text><!--class Database.PersonContext--><rect fill="#FEFECE" filter="url(#f7gkilau9rvqp)" height="99.2188" id="Database.PersonContext" style="stroke: #A80036; stroke-width: 1.5;" width="124" x="639" y="460"/><ellipse cx="654" cy="476" fill="#ADD1B2" rx="11" ry="11" style="stroke: #A80036; stroke-width: 1.0;"/><path d="M656.3438,471.6719 L656.5156,471.75 C656.7344,471.4375 656.9375,471.3438 657.2344,471.3438 C657.5313,471.3438 657.8125,471.4844 657.9688,471.75 C658.0625,471.9063 658.0781,472.0313 658.0781,472.4688 L658.0781,473.8906 C658.0781,474.3125 658.0469,474.5 657.9375,474.6563 C657.7656,474.875 657.5,475.0156 657.2344,475.0156 C657.0156,475.0156 656.7813,474.9063 656.6406,474.7656 C656.5,474.6406 656.4688,474.5156 656.4063,474.1094 C656.3125,473.7031 656.1406,473.4844 655.6563,473.2031 C655.1875,472.9531 654.5781,472.7969 654,472.7969 C652.2656,472.7969 651.0156,474.1094 651.0156,475.8906 L651.0156,476.9844 C651.0156,478.6875 652.3125,479.7813 654.3594,479.7813 C655.125,479.7813 655.8125,479.6563 656.2344,479.3906 C656.4219,479.2969 656.4219,479.2969 656.875,478.8125 C657.0625,478.625 657.2656,478.5469 657.4844,478.5469 C657.9531,478.5469 658.3438,478.9375 658.3438,479.3906 C658.3438,479.7813 658.0156,480.2344 657.4375,480.6406 C656.6875,481.1875 655.5313,481.4844 654.3125,481.4844 C651.4219,481.4844 649.3125,479.5938 649.3125,477.0156 L649.3125,475.8906 C649.3125,473.1719 651.3125,471.0938 653.9375,471.0938 C654.8125,471.0938 655.4063,471.2344 656.3438,471.6719 Z "/><text fill="#000000" font-family="sans-serif" font-size="12" lengthAdjust="spacingAndGlyphs" textLength="92" x="668" y="480.1543">PersonContext</text><line style="stroke: #A80036; stroke-width: 1.5;" x1="640" x2="762" y1="492" y2="492"/><text fill="#000000" font-family="sans-serif" font-size="11" lengthAdjust="spacingAndGlyphs" textLength="40" x="645" y="506.2104">id  : int</text><text fill="#000000" font-family="sans-serif" font-size="11" lengthAdjust="spacingAndGlyphs" textLength="77" x="645" y="519.0151">name : string</text><text fill="#000000" font-family="sans-serif" font-size="11" lengthAdjust="spacingAndGlyphs" textLength="89" x="645" y="531.8198">seller : boolean</text><text fill="#000000" font-family="sans-serif" font-size="11" lengthAdjust="spacingAndGlyphs" textLength="64" x="645" y="544.6245">money : int</text><line style="stroke: #A80036; stroke-width: 1.5;" x1="640" x2="762" y1="551.2188" y2="551.2188"/><!--class Database.ProductContext--><rect fill="#FEFECE" filter="url(#f7gkilau9rvqp)" height="86.4141" id="Database.ProductContext" style="stroke: #A80036; stroke-width: 1.5;" width="129" x="639.5" y="680"/><ellipse cx="654.5" cy="696" fill="#ADD1B2" rx="11" ry="11" style="stroke: #A80036; stroke-width: 1.0;"/><path d="M656.8438,691.6719 L657.0156,691.75 C657.2344,691.4375 657.4375,691.3438 657.7344,691.3438 C658.0313,691.3438 658.3125,691.4844 658.4688,691.75 C658.5625,691.9063 658.5781,692.0313 658.5781,692.4688 L658.5781,693.8906 C658.5781,694.3125 658.5469,694.5 658.4375,694.6563 C658.2656,694.875 658,695.0156 657.7344,695.0156 C657.5156,695.0156 657.2813,694.9063 657.1406,694.7656 C657,694.6406 656.9688,694.5156 656.9063,694.1094 C656.8125,693.7031 656.6406,693.4844 656.1563,693.2031 C655.6875,692.9531 655.0781,692.7969 654.5,692.7969 C652.7656,692.7969 651.5156,694.1094 651.5156,695.8906 L651.5156,696.9844 C651.5156,698.6875 652.8125,699.7813 654.8594,699.7813 C655.625,699.7813 656.3125,699.6563 656.7344,699.3906 C656.9219,699.2969 656.9219,699.2969 657.375,698.8125 C657.5625,698.625 657.7656,698.5469 657.9844,698.5469 C658.4531,698.5469 658.8438,698.9375 658.8438,699.3906 C658.8438,699.7813 658.5156,700.2344 657.9375,700.6406 C657.1875,701.1875 656.0313,701.4844 654.8125,701.4844 C651.9219,701.4844 649.8125,699.5938 649.8125,697.0156 L649.8125,695.8906 C649.8125,693.1719 651.8125,691.0938 654.4375,691.0938 C655.3125,691.0938 655.9063,691.2344 656.8438,691.6719 Z "/><text fill="#000000" font-family="sans-serif" font-size="12" lengthAdjust="spacingAndGlyphs" textLength="97" x="668.5" y="700.1543">ProductContext</text><line style="stroke: #A80036; stroke-width: 1.5;" x1="640.5" x2="767.5" y1="712" y2="712"/><text fill="#000000" font-family="sans-serif" font-size="11" lengthAdjust="spacingAndGlyphs" textLength="36" x="645.5" y="726.2104">id : int</text><text fill="#000000" font-family="sans-serif" font-size="11" lengthAdjust="spacingAndGlyphs" textLength="77" x="645.5" y="739.0151">name : string</text><text fill="#000000" font-family="sans-serif" font-size="11" lengthAdjust="spacingAndGlyphs" textLength="54" x="645.5" y="751.8198">price : int</text><line style="stroke: #A80036; stroke-width: 1.5;" x1="640.5" x2="767.5" y1="758.4141" y2="758.4141"/><!--class Fleemarket.ProductController--><rect fill="#FEFECE" filter="url(#f7gkilau9rvqp)" height="86.4141" id="Fleemarket.ProductController" style="stroke: #A80036; stroke-width: 1.5;" width="297" x="285.5" y="314"/><ellipse cx="374.75" cy="330" fill="#ADD1B2" rx="11" ry="11" style="stroke: #A80036; stroke-width: 1.0;"/><path d="M377.0938,325.6719 L377.2656,325.75 C377.4844,325.4375 377.6875,325.3438 377.9844,325.3438 C378.2813,325.3438 378.5625,325.4844 378.7188,325.75 C378.8125,325.9063 378.8281,326.0313 378.8281,326.4688 L378.8281,327.8906 C378.8281,328.3125 378.7969,328.5 378.6875,328.6563 C378.5156,328.875 378.25,329.0156 377.9844,329.0156 C377.7656,329.0156 377.5313,328.9063 377.3906,328.7656 C377.25,328.6406 377.2188,328.5156 377.1563,328.1094 C377.0625,327.7031 376.8906,327.4844 376.4063,327.2031 C375.9375,326.9531 375.3281,326.7969 374.75,326.7969 C373.0156,326.7969 371.7656,328.1094 371.7656,329.8906 L371.7656,330.9844 C371.7656,332.6875 373.0625,333.7813 375.1094,333.7813 C375.875,333.7813 376.5625,333.6563 376.9844,333.3906 C377.1719,333.2969 377.1719,333.2969 377.625,332.8125 C377.8125,332.625 378.0156,332.5469 378.2344,332.5469 C378.7031,332.5469 379.0938,332.9375 379.0938,333.3906 C379.0938,333.7813 378.7656,334.2344 378.1875,334.6406 C377.4375,335.1875 376.2813,335.4844 375.0625,335.4844 C372.1719,335.4844 370.0625,333.5938 370.0625,331.0156 L370.0625,329.8906 C370.0625,327.1719 372.0625,325.0938 374.6875,325.0938 C375.5625,325.0938 376.1563,325.2344 377.0938,325.6719 Z "/><text fill="#000000" font-family="sans-serif" font-size="12" lengthAdjust="spacingAndGlyphs" textLength="110" x="395.25" y="334.1543">ProductController</text><line style="stroke: #A80036; stroke-width: 1.5;" x1="286.5" x2="581.5" y1="346" y2="346"/><line style="stroke: #A80036; stroke-width: 1.5;" x1="286.5" x2="581.5" y1="354" y2="354"/><ellipse cx="296.5" cy="365.9023" fill="#84BE84" rx="3" ry="3" style="stroke: #038048; stroke-width: 1.0;"/><text fill="#000000" font-family="sans-serif" font-size="11" lengthAdjust="spacingAndGlyphs" textLength="225" x="305.5" y="368.2104">getProduct() : Database.ProductContext</text><ellipse cx="296.5" cy="378.707" fill="#84BE84" rx="3" ry="3" style="stroke: #038048; stroke-width: 1.0;"/><text fill="#000000" font-family="sans-serif" font-size="11" lengthAdjust="spacingAndGlyphs" textLength="271" x="305.5" y="381.0151">getRandomProduct() : Database.ProductContext</text><ellipse cx="296.5" cy="391.5117" fill="#84BE84" rx="3" ry="3" style="stroke: #038048; stroke-width: 1.0;"/><text fill="#000000" font-family="sans-serif" font-size="11" lengthAdjust="spacingAndGlyphs" textLength="131" x="305.5" y="393.8198">newProduct() : boolean</text><!--class Fleemarket.ConsoleView--><rect fill="#FEFECE" filter="url(#f7gkilau9rvqp)" height="60.8047" id="Fleemarket.ConsoleView" style="stroke: #A80036; stroke-width: 1.5;" width="156" x="356" y="479"/><ellipse cx="391.7" cy="495" fill="#ADD1B2" rx="11" ry="11" style="stroke: #A80036; stroke-width: 1.0;"/><path d="M394.0438,490.6719 L394.2156,490.75 C394.4344,490.4375 394.6375,490.3438 394.9344,490.3438 C395.2313,490.3438 395.5125,490.4844 395.6688,490.75 C395.7625,490.9063 395.7781,491.0313 395.7781,491.4688 L395.7781,492.8906 C395.7781,493.3125 395.7469,493.5 395.6375,493.6563 C395.4656,493.875 395.2,494.0156 394.9344,494.0156 C394.7156,494.0156 394.4813,493.9063 394.3406,493.7656 C394.2,493.6406 394.1688,493.5156 394.1063,493.1094 C394.0125,492.7031 393.8406,492.4844 393.3563,492.2031 C392.8875,491.9531 392.2781,491.7969 391.7,491.7969 C389.9656,491.7969 388.7156,493.1094 388.7156,494.8906 L388.7156,495.9844 C388.7156,497.6875 390.0125,498.7813 392.0594,498.7813 C392.825,498.7813 393.5125,498.6563 393.9344,498.3906 C394.1219,498.2969 394.1219,498.2969 394.575,497.8125 C394.7625,497.625 394.9656,497.5469 395.1844,497.5469 C395.6531,497.5469 396.0438,497.9375 396.0438,498.3906 C396.0438,498.7813 395.7156,499.2344 395.1375,499.6406 C394.3875,500.1875 393.2313,500.4844 392.0125,500.4844 C389.1219,500.4844 387.0125,498.5938 387.0125,496.0156 L387.0125,494.8906 C387.0125,492.1719 389.0125,490.0938 391.6375,490.0938 C392.5125,490.0938 393.1063,490.2344 394.0438,490.6719 Z "/><text fill="#000000" font-family="sans-serif" font-size="12" lengthAdjust="spacingAndGlyphs" textLength="78" x="410.3" y="499.1543">ConsoleView</text><line style="stroke: #A80036; stroke-width: 1.5;" x1="357" x2="511" y1="511" y2="511"/><line style="stroke: #A80036; stroke-width: 1.5;" x1="357" x2="511" y1="519" y2="519"/><text fill="#000000" font-family="sans-serif" font-size="11" lengthAdjust="spacingAndGlyphs" textLength="144" x="362" y="533.2104">print(value : string) : void</text><!--class Fleemarket.Person--><rect fill="#FEFECE" filter="url(#f7gkilau9rvqp)" height="60.8047" id="Fleemarket.Person" style="stroke: #A80036; stroke-width: 1.5;" width="90" x="345" y="59"/><ellipse cx="367.2" cy="75" fill="#B4A7E5" rx="11" ry="11" style="stroke: #A80036; stroke-width: 1.0;"/><path d="M368.1531,71.7813 L368.1531,78.2969 L369.8719,78.2969 C370.325,78.2969 370.4656,78.3281 370.6375,78.4531 C370.8719,78.625 370.9813,78.875 370.9813,79.1563 C370.9813,79.7188 370.6219,80 369.8719,80 L364.7313,80 C364.325,80 364.1219,79.9531 363.9656,79.8281 C363.7469,79.6719 363.6063,79.4063 363.6063,79.1563 C363.6063,78.8594 363.7625,78.5781 364.0125,78.4219 C364.1688,78.3125 364.2938,78.2969 364.7313,78.2969 L366.45,78.2969 L366.45,71.7813 L364.7313,71.7813 C364.3094,71.7813 364.1219,71.75 363.9656,71.6406 C363.7469,71.4688 363.6063,71.2188 363.6063,70.9375 C363.6063,70.6563 363.7625,70.3594 364.0125,70.2031 C364.1688,70.1094 364.2938,70.0938 364.7313,70.0938 L369.8719,70.0938 C370.325,70.0938 370.4656,70.125 370.6375,70.2344 C370.8719,70.4063 370.9813,70.6719 370.9813,70.9375 C370.9813,71.2344 370.8406,71.5156 370.575,71.6719 C370.45,71.75 370.2625,71.7813 369.8719,71.7813 Z "/><text fill="#000000" font-family="sans-serif" font-size="12" font-style="italic" lengthAdjust="spacingAndGlyphs" textLength="42" x="382.8" y="79.1543">Person</text><line style="stroke: #A80036; stroke-width: 1.5;" x1="346" x2="434" y1="91" y2="91"/><line style="stroke: #A80036; stroke-width: 1.5;" x1="346" x2="434" y1="99" y2="99"/><text fill="#000000" font-family="sans-serif" font-size="11" font-style="italic" lengthAdjust="spacingAndGlyphs" textLength="78" x="351" y="113.2104">action() : void</text><!--class Fleemarket.Seller--><rect fill="#FEFECE" filter="url(#f7gkilau9rvqp)" height="73.6094" id="Fleemarket.Seller" style="stroke: #A80036; stroke-width: 1.5;" width="256" x="38" y="180"/><ellipse cx="144.25" cy="196" fill="#ADD1B2" rx="11" ry="11" style="stroke: #A80036; stroke-width: 1.0;"/><path d="M146.5938,191.6719 L146.7656,191.75 C146.9844,191.4375 147.1875,191.3438 147.4844,191.3438 C147.7813,191.3438 148.0625,191.4844 148.2188,191.75 C148.3125,191.9063 148.3281,192.0313 148.3281,192.4688 L148.3281,193.8906 C148.3281,194.3125 148.2969,194.5 148.1875,194.6563 C148.0156,194.875 147.75,195.0156 147.4844,195.0156 C147.2656,195.0156 147.0313,194.9063 146.8906,194.7656 C146.75,194.6406 146.7188,194.5156 146.6563,194.1094 C146.5625,193.7031 146.3906,193.4844 145.9063,193.2031 C145.4375,192.9531 144.8281,192.7969 144.25,192.7969 C142.5156,192.7969 141.2656,194.1094 141.2656,195.8906 L141.2656,196.9844 C141.2656,198.6875 142.5625,199.7813 144.6094,199.7813 C145.375,199.7813 146.0625,199.6563 146.4844,199.3906 C146.6719,199.2969 146.6719,199.2969 147.125,198.8125 C147.3125,198.625 147.5156,198.5469 147.7344,198.5469 C148.2031,198.5469 148.5938,198.9375 148.5938,199.3906 C148.5938,199.7813 148.2656,200.2344 147.6875,200.6406 C146.9375,201.1875 145.7813,201.4844 144.5625,201.4844 C141.6719,201.4844 139.5625,199.5938 139.5625,197.0156 L139.5625,195.8906 C139.5625,193.1719 141.5625,191.0938 144.1875,191.0938 C145.0625,191.0938 145.6563,191.2344 146.5938,191.6719 Z "/><text fill="#000000" font-family="sans-serif" font-size="12" lengthAdjust="spacingAndGlyphs" textLength="35" x="164.75" y="200.1543">Seller</text><line style="stroke: #A80036; stroke-width: 1.5;" x1="39" x2="293" y1="212" y2="212"/><line style="stroke: #A80036; stroke-width: 1.5;" x1="39" x2="293" y1="220" y2="220"/><ellipse cx="49" cy="231.9023" fill="#84BE84" rx="3" ry="3" style="stroke: #038048; stroke-width: 1.0;"/><text fill="#000000" font-family="sans-serif" font-size="11" lengthAdjust="spacingAndGlyphs" textLength="77" x="58" y="234.2104">action() : void</text><rect fill="#F24D5C" height="6" style="stroke: #C82930; stroke-width: 1.0;" width="6" x="46" y="241.707"/><text fill="#000000" font-family="sans-serif" font-size="11" lengthAdjust="spacingAndGlyphs" textLength="230" x="58" y="247.0151">newProduct() : Database.ProductContext</text><!--class Fleemarket.Customer--><rect fill="#FEFECE" filter="url(#f7gkilau9rvqp)" height="73.6094" id="Fleemarket.Customer" style="stroke: #A80036; stroke-width: 1.5;" width="253" x="329.5" y="180"/><ellipse cx="421.75" cy="196" fill="#ADD1B2" rx="11" ry="11" style="stroke: #A80036; stroke-width: 1.0;"/><path d="M424.0938,191.6719 L424.2656,191.75 C424.4844,191.4375 424.6875,191.3438 424.9844,191.3438 C425.2813,191.3438 425.5625,191.4844 425.7188,191.75 C425.8125,191.9063 425.8281,192.0313 425.8281,192.4688 L425.8281,193.8906 C425.8281,194.3125 425.7969,194.5 425.6875,194.6563 C425.5156,194.875 425.25,195.0156 424.9844,195.0156 C424.7656,195.0156 424.5313,194.9063 424.3906,194.7656 C424.25,194.6406 424.2188,194.5156 424.1563,194.1094 C424.0625,193.7031 423.8906,193.4844 423.4063,193.2031 C422.9375,192.9531 422.3281,192.7969 421.75,192.7969 C420.0156,192.7969 418.7656,194.1094 418.7656,195.8906 L418.7656,196.9844 C418.7656,198.6875 420.0625,199.7813 422.1094,199.7813 C422.875,199.7813 423.5625,199.6563 423.9844,199.3906 C424.1719,199.2969 424.1719,199.2969 424.625,198.8125 C424.8125,198.625 425.0156,198.5469 425.2344,198.5469 C425.7031,198.5469 426.0938,198.9375 426.0938,199.3906 C426.0938,199.7813 425.7656,200.2344 425.1875,200.6406 C424.4375,201.1875 423.2813,201.4844 422.0625,201.4844 C419.1719,201.4844 417.0625,199.5938 417.0625,197.0156 L417.0625,195.8906 C417.0625,193.1719 419.0625,191.0938 421.6875,191.0938 C422.5625,191.0938 423.1563,191.2344 424.0938,191.6719 Z "/><text fill="#000000" font-family="sans-serif" font-size="12" lengthAdjust="spacingAndGlyphs" textLength="60" x="442.25" y="200.1543">Customer</text><line style="stroke: #A80036; stroke-width: 1.5;" x1="330.5" x2="581.5" y1="212" y2="212"/><line style="stroke: #A80036; stroke-width: 1.5;" x1="330.5" x2="581.5" y1="220" y2="220"/><ellipse cx="340.5" cy="231.9023" fill="#84BE84" rx="3" ry="3" style="stroke: #038048; stroke-width: 1.0;"/><text fill="#000000" font-family="sans-serif" font-size="11" lengthAdjust="spacingAndGlyphs" textLength="77" x="349.5" y="234.2104">action() : void</text><rect fill="#F24D5C" height="6" style="stroke: #C82930; stroke-width: 1.0;" width="6" x="337.5" y="241.707"/><text fill="#000000" font-family="sans-serif" font-size="11" lengthAdjust="spacingAndGlyphs" textLength="227" x="349.5" y="247.0151">buyProduct() : Database.ProductContext</text><!--class Fleemarket.Market--><rect fill="#FEFECE" filter="url(#f7gkilau9rvqp)" height="48" id="Fleemarket.Market" style="stroke: #A80036; stroke-width: 1.5;" width="75" x="169.5" y="65.5"/><ellipse cx="184.5" cy="81.5" fill="#ADD1B2" rx="11" ry="11" style="stroke: #A80036; stroke-width: 1.0;"/><path d="M186.8438,77.1719 L187.0156,77.25 C187.2344,76.9375 187.4375,76.8438 187.7344,76.8438 C188.0313,76.8438 188.3125,76.9844 188.4688,77.25 C188.5625,77.4063 188.5781,77.5313 188.5781,77.9688 L188.5781,79.3906 C188.5781,79.8125 188.5469,80 188.4375,80.1563 C188.2656,80.375 188,80.5156 187.7344,80.5156 C187.5156,80.5156 187.2813,80.4063 187.1406,80.2656 C187,80.1406 186.9688,80.0156 186.9063,79.6094 C186.8125,79.2031 186.6406,78.9844 186.1563,78.7031 C185.6875,78.4531 185.0781,78.2969 184.5,78.2969 C182.7656,78.2969 181.5156,79.6094 181.5156,81.3906 L181.5156,82.4844 C181.5156,84.1875 182.8125,85.2813 184.8594,85.2813 C185.625,85.2813 186.3125,85.1563 186.7344,84.8906 C186.9219,84.7969 186.9219,84.7969 187.375,84.3125 C187.5625,84.125 187.7656,84.0469 187.9844,84.0469 C188.4531,84.0469 188.8438,84.4375 188.8438,84.8906 C188.8438,85.2813 188.5156,85.7344 187.9375,86.1406 C187.1875,86.6875 186.0313,86.9844 184.8125,86.9844 C181.9219,86.9844 179.8125,85.0938 179.8125,82.5156 L179.8125,81.3906 C179.8125,78.6719 181.8125,76.5938 184.4375,76.5938 C185.3125,76.5938 185.9063,76.7344 186.8438,77.1719 Z "/><text fill="#000000" font-family="sans-serif" font-size="12" lengthAdjust="spacingAndGlyphs" textLength="43" x="198.5" y="85.6543">Market</text><line style="stroke: #A80036; stroke-width: 1.5;" x1="170.5" x2="243.5" y1="97.5" y2="97.5"/><line style="stroke: #A80036; stroke-width: 1.5;" x1="170.5" x2="243.5" y1="105.5" y2="105.5"/><!--link Database.PersonContext to Database.ProductContext--><path d="M701.688,559.022 C702.205,595.488 702.907,644.944 703.401,679.782 " fill="none" id="Database.PersonContext-Database.ProductContext" style="stroke: #A80036; stroke-width: 1.0;"/><text fill="#000000" font-family="sans-serif" font-size="13" lengthAdjust="spacingAndGlyphs" textLength="8" x="693.2016" y="579.4577">1</text><text fill="#000000" font-family="sans-serif" font-size="13" lengthAdjust="spacingAndGlyphs" textLength="23" x="678.5483" y="669.0612">0..*</text><!--link Fleemarket.ProductController to Database.ProductContext--><path d="M582.933,364.589 C664.92,371.685 755.178,386.417 781,417 C841.782,488.989 785.672,602.466 742.614,668.819 " fill="none" id="Fleemarket.ProductController-Database.ProductContext" style="stroke: #A80036; stroke-width: 1.0;"/><polygon fill="#FFFFFF" points="735.298,679.844,741.9484,677.0561,741.9328,669.845,735.2824,672.6329,735.298,679.844" style="stroke: #A80036; stroke-width: 1.0;"/><!--link Fleemarket.ProductController to Database.PersonContext--><path d="M566.277,400.023 C577.611,405.193 588.676,410.85 599,417 C614.87,426.455 630.497,438.593 644.569,450.916 " fill="none" id="Fleemarket.ProductController-Database.PersonContext" style="stroke: #A80036; stroke-width: 1.0;"/><polygon fill="#FFFFFF" points="654.521,459.886,652.7422,452.8977,645.6073,451.8519,647.3861,458.8402,654.521,459.886" style="stroke: #A80036; stroke-width: 1.0;"/><!--link Fleemarket.ProductController to Fleemarket.ConsoleView--><path d="M434,400.323 C434,420.765 434,445.246 434,465.744 " fill="none" id="Fleemarket.ProductController-Fleemarket.ConsoleView" style="stroke: #A80036; stroke-width: 1.0;"/><polygon fill="#A80036" points="434,478.878,438,472.878,434,466.878,430,472.878,434,478.878" style="stroke: #A80036; stroke-width: 1.0;"/><!--link Fleemarket.Person to Fleemarket.Seller--><path d="M327.465,125.536 C297.238,142.471 260.995,162.777 230.512,179.856 " fill="none" id="Fleemarket.Person-Fleemarket.Seller" style="stroke: #A80036; stroke-width: 1.0; stroke-dasharray: 7.0,7.0;"/><polygon fill="none" points="324.07,119.415,344.94,115.746,330.913,131.628,324.07,119.415" style="stroke: #A80036; stroke-width: 1.0;"/><!--link Fleemarket.Seller to Fleemarket.ProductController--><path d="M236.064,254.078 C267.834,270.437 305.866,290.021 340.065,307.63 " fill="none" id="Fleemarket.Seller-Fleemarket.ProductController" style="stroke: #A80036; stroke-width: 1.0;"/><polygon fill="#A80036" points="351.985,313.768,348.482,307.4649,341.3165,308.2742,344.8195,314.5773,351.985,313.768" style="stroke: #A80036; stroke-width: 1.0;"/><!--link Fleemarket.Person to Fleemarket.Customer--><path d="M415.056,138.143 C422.312,151.941 430.113,166.775 436.939,179.755 " fill="none" id="Fleemarket.Person-Fleemarket.Customer" style="stroke: #A80036; stroke-width: 1.0; stroke-dasharray: 7.0,7.0;"/><polygon fill="none" points="408.755,141.201,405.641,120.242,421.146,134.685,408.755,141.201" style="stroke: #A80036; stroke-width: 1.0;"/><!--link Fleemarket.Customer to Fleemarket.ProductController--><path d="M450.22,254.258 C447.952,268.482 445.299,285.124 442.803,300.779 " fill="none" id="Fleemarket.Customer-Fleemarket.ProductController" style="stroke: #A80036; stroke-width: 1.0;"/><polygon fill="#A80036" points="440.756,313.622,445.6509,308.3267,442.6456,301.7717,437.7507,307.067,440.756,313.622" style="stroke: #A80036; stroke-width: 1.0;"/><!--
@startuml
namespace Database {
    class PersonContext {
        id  : int
        name : string
        seller : boolean
        money : int
    }
    
    PersonContext "1" - - - "0..*" ProductContext
    
    class ProductContext {
        id : int
        name : string
        price : int
    }
}

namespace Fleemarket {
    class ProductController{
        +getProduct() : Database.ProductContext
        +getRandomProduct() : Database.ProductContext
        +newProduct() : boolean
    }
    
    ProductController - -o Database.ProductContext
    ProductController - -o Database.PersonContext
    
    class ConsoleView {
        print(value : string) : void
    }
    
    ProductController - -* ConsoleView
    
    interface Person {
        {abstract} action() : void
    }
    
    class Seller implements Person {
        +action() : void
        -newProduct() : Database.ProductContext
    }
    
    Seller - -* ProductController
    
    class Customer implements Person {
        +action() : void
        -buyProduct() : Database.ProductContext
    }
    
    Customer - -* ProductController
    
    class Market {
    
    }
}
@enduml

PlantUML version 1.2018.13beta11(Unknown compile time)
(GPL source distribution)
Java Runtime: Java(TM) SE Runtime Environment
JVM: Java HotSpot(TM) 64-Bit Server VM
Java Version: 1.7.0_25-b15
Operating System: Linux
Default Encoding: UTF-8
Language: en
Country: US
--></g></svg>